<mxfile host="app.diagrams.net" modified="2022-02-17T22:34:31.464Z" agent="5.0 (Windows NT 10.0; Win64; x64) AppleWebKit/537.36 (KHTML, like Gecko) Chrome/98.0.4758.80 Safari/537.36" etag="_abKK--XR-1COsnetM91" version="16.6.0" type="github">
  <diagram id="TYROoGDcu9tdVPNurXOH" name="Page-1">
    <mxGraphModel dx="1358" dy="841" grid="1" gridSize="10" guides="1" tooltips="1" connect="1" arrows="1" fold="1" page="1" pageScale="1" pageWidth="850" pageHeight="1100" background="#FFFFFF" math="0" shadow="0">
      <root>
        <mxCell id="0" />
        <mxCell id="1" parent="0" />
        <mxCell id="vTX-KcL99bvoVYK80CGo-35" style="edgeStyle=orthogonalEdgeStyle;rounded=0;orthogonalLoop=1;jettySize=auto;html=1;exitX=0.5;exitY=0;exitDx=0;exitDy=0;entryX=0.5;entryY=0;entryDx=0;entryDy=0;fontFamily=Times New Roman;fontSize=12;fillColor=#e51400;strokeColor=#FF0000;" edge="1" parent="1" source="vTX-KcL99bvoVYK80CGo-1" target="vTX-KcL99bvoVYK80CGo-5">
          <mxGeometry relative="1" as="geometry" />
        </mxCell>
        <mxCell id="vTX-KcL99bvoVYK80CGo-1" value="" style="ellipse;whiteSpace=wrap;html=1;aspect=fixed;fillColor=#000000;direction=west;strokeColor=#FF0000;perimeterSpacing=2;strokeWidth=2;" vertex="1" parent="1">
          <mxGeometry x="405" y="10" width="40" height="40" as="geometry" />
        </mxCell>
        <mxCell id="vTX-KcL99bvoVYK80CGo-20" style="edgeStyle=orthogonalEdgeStyle;rounded=0;orthogonalLoop=1;jettySize=auto;html=1;exitX=0.5;exitY=1;exitDx=0;exitDy=0;entryX=0;entryY=0.5;entryDx=0;entryDy=0;fontFamily=Times New Roman;fontSize=12;" edge="1" parent="1" source="vTX-KcL99bvoVYK80CGo-2" target="vTX-KcL99bvoVYK80CGo-6">
          <mxGeometry relative="1" as="geometry" />
        </mxCell>
        <mxCell id="vTX-KcL99bvoVYK80CGo-2" value="&lt;font face=&quot;Times New Roman&quot; style=&quot;font-size: 12px&quot;&gt;&lt;b&gt;Validate ID card with registrar&#39;s office&lt;/b&gt;&lt;/font&gt;" style="rounded=1;whiteSpace=wrap;html=1;fillColor=#FFFFFF;gradientColor=none;" vertex="1" parent="1">
          <mxGeometry x="180" y="290" width="120" height="60" as="geometry" />
        </mxCell>
        <mxCell id="vTX-KcL99bvoVYK80CGo-22" style="edgeStyle=orthogonalEdgeStyle;rounded=0;orthogonalLoop=1;jettySize=auto;html=1;exitX=0.5;exitY=1;exitDx=0;exitDy=0;entryX=1;entryY=0.5;entryDx=0;entryDy=0;fontFamily=Times New Roman;fontSize=12;" edge="1" parent="1" source="vTX-KcL99bvoVYK80CGo-3" target="vTX-KcL99bvoVYK80CGo-6">
          <mxGeometry relative="1" as="geometry" />
        </mxCell>
        <mxCell id="vTX-KcL99bvoVYK80CGo-3" value="&lt;font face=&quot;Times New Roman&quot;&gt;&lt;b&gt;Validate ID card&lt;/b&gt;&lt;/font&gt;" style="rounded=1;whiteSpace=wrap;html=1;fillColor=#FFFFFF;gradientColor=none;" vertex="1" parent="1">
          <mxGeometry x="550" y="290" width="120" height="60" as="geometry" />
        </mxCell>
        <mxCell id="vTX-KcL99bvoVYK80CGo-21" style="edgeStyle=orthogonalEdgeStyle;rounded=0;orthogonalLoop=1;jettySize=auto;html=1;exitX=0.5;exitY=1;exitDx=0;exitDy=0;entryX=0.5;entryY=0;entryDx=0;entryDy=0;fontFamily=Times New Roman;fontSize=12;" edge="1" parent="1" source="vTX-KcL99bvoVYK80CGo-4" target="vTX-KcL99bvoVYK80CGo-6">
          <mxGeometry relative="1" as="geometry" />
        </mxCell>
        <mxCell id="vTX-KcL99bvoVYK80CGo-4" value="&lt;font face=&quot;Times New Roman&quot;&gt;&lt;b&gt;Validate ID card with personnel office&lt;/b&gt;&lt;/font&gt;" style="rounded=1;whiteSpace=wrap;html=1;fillColor=#FFFFFF;gradientColor=none;" vertex="1" parent="1">
          <mxGeometry x="365" y="290" width="120" height="60" as="geometry" />
        </mxCell>
        <mxCell id="vTX-KcL99bvoVYK80CGo-15" style="edgeStyle=orthogonalEdgeStyle;rounded=0;orthogonalLoop=1;jettySize=auto;html=1;exitX=1;exitY=0.5;exitDx=0;exitDy=0;entryX=0.5;entryY=0;entryDx=0;entryDy=0;fontFamily=Times New Roman;fontSize=12;" edge="1" parent="1" source="vTX-KcL99bvoVYK80CGo-5" target="vTX-KcL99bvoVYK80CGo-3">
          <mxGeometry relative="1" as="geometry" />
        </mxCell>
        <mxCell id="vTX-KcL99bvoVYK80CGo-17" value="&lt;b&gt;&lt;font style=&quot;font-size: 12px&quot;&gt;Borrower is guest&lt;/font&gt;&lt;/b&gt;" style="edgeLabel;html=1;align=center;verticalAlign=middle;resizable=0;points=[];fontSize=12;fontFamily=Times New Roman;" vertex="1" connectable="0" parent="vTX-KcL99bvoVYK80CGo-15">
          <mxGeometry x="0.163" relative="1" as="geometry">
            <mxPoint as="offset" />
          </mxGeometry>
        </mxCell>
        <mxCell id="vTX-KcL99bvoVYK80CGo-13" style="edgeStyle=orthogonalEdgeStyle;rounded=0;orthogonalLoop=1;jettySize=auto;html=1;exitX=0;exitY=0.5;exitDx=0;exitDy=0;fontFamily=Times New Roman;fontSize=12;" edge="1" parent="1" source="vTX-KcL99bvoVYK80CGo-5" target="vTX-KcL99bvoVYK80CGo-2">
          <mxGeometry relative="1" as="geometry" />
        </mxCell>
        <mxCell id="vTX-KcL99bvoVYK80CGo-16" value="&lt;b&gt;Borrower is Student&lt;/b&gt;" style="edgeLabel;html=1;align=center;verticalAlign=middle;resizable=0;points=[];fontSize=12;fontFamily=Times New Roman;" vertex="1" connectable="0" parent="vTX-KcL99bvoVYK80CGo-13">
          <mxGeometry x="0.1059" y="2" relative="1" as="geometry">
            <mxPoint as="offset" />
          </mxGeometry>
        </mxCell>
        <mxCell id="vTX-KcL99bvoVYK80CGo-19" value="&lt;b&gt;Borrower is staff or faculty&lt;/b&gt;" style="edgeStyle=orthogonalEdgeStyle;rounded=0;orthogonalLoop=1;jettySize=auto;html=1;exitX=0.5;exitY=1;exitDx=0;exitDy=0;entryX=0.5;entryY=0;entryDx=0;entryDy=0;fontFamily=Times New Roman;fontSize=12;" edge="1" parent="1" source="vTX-KcL99bvoVYK80CGo-5" target="vTX-KcL99bvoVYK80CGo-4">
          <mxGeometry relative="1" as="geometry" />
        </mxCell>
        <mxCell id="vTX-KcL99bvoVYK80CGo-5" value="" style="rhombus;whiteSpace=wrap;html=1;fillColor=#FFFFFF;gradientColor=none;" vertex="1" parent="1">
          <mxGeometry x="385" y="140" width="80" height="80" as="geometry" />
        </mxCell>
        <mxCell id="vTX-KcL99bvoVYK80CGo-23" style="edgeStyle=orthogonalEdgeStyle;rounded=0;orthogonalLoop=1;jettySize=auto;html=1;exitX=0.5;exitY=1;exitDx=0;exitDy=0;entryX=0.5;entryY=0;entryDx=0;entryDy=0;fontFamily=Times New Roman;fontSize=12;" edge="1" parent="1" source="vTX-KcL99bvoVYK80CGo-6" target="vTX-KcL99bvoVYK80CGo-7">
          <mxGeometry relative="1" as="geometry" />
        </mxCell>
        <mxCell id="vTX-KcL99bvoVYK80CGo-6" value="" style="rhombus;whiteSpace=wrap;html=1;fillColor=#FFFFFF;gradientColor=none;" vertex="1" parent="1">
          <mxGeometry x="385" y="400" width="80" height="80" as="geometry" />
        </mxCell>
        <mxCell id="vTX-KcL99bvoVYK80CGo-24" value="&lt;b&gt;Card is valid&lt;/b&gt;" style="edgeStyle=orthogonalEdgeStyle;rounded=0;orthogonalLoop=1;jettySize=auto;html=1;exitX=1;exitY=0.5;exitDx=0;exitDy=0;entryX=0;entryY=0.5;entryDx=0;entryDy=0;fontFamily=Times New Roman;fontSize=12;" edge="1" parent="1" source="vTX-KcL99bvoVYK80CGo-7" target="vTX-KcL99bvoVYK80CGo-8">
          <mxGeometry relative="1" as="geometry" />
        </mxCell>
        <mxCell id="vTX-KcL99bvoVYK80CGo-25" style="edgeStyle=orthogonalEdgeStyle;rounded=0;orthogonalLoop=1;jettySize=auto;html=1;exitX=0;exitY=0.5;exitDx=0;exitDy=0;entryX=0.5;entryY=0;entryDx=0;entryDy=0;fontFamily=Times New Roman;fontSize=12;" edge="1" parent="1" source="vTX-KcL99bvoVYK80CGo-7" target="vTX-KcL99bvoVYK80CGo-12">
          <mxGeometry relative="1" as="geometry" />
        </mxCell>
        <mxCell id="vTX-KcL99bvoVYK80CGo-31" value="&lt;b&gt;Card is valid&lt;/b&gt;" style="edgeLabel;html=1;align=center;verticalAlign=middle;resizable=0;points=[];fontSize=12;fontFamily=Times New Roman;" vertex="1" connectable="0" parent="vTX-KcL99bvoVYK80CGo-25">
          <mxGeometry x="0.0248" relative="1" as="geometry">
            <mxPoint as="offset" />
          </mxGeometry>
        </mxCell>
        <mxCell id="vTX-KcL99bvoVYK80CGo-7" value="" style="rhombus;whiteSpace=wrap;html=1;fillColor=#FFFFFF;gradientColor=none;" vertex="1" parent="1">
          <mxGeometry x="385" y="530" width="80" height="80" as="geometry" />
        </mxCell>
        <mxCell id="vTX-KcL99bvoVYK80CGo-26" style="edgeStyle=orthogonalEdgeStyle;rounded=0;orthogonalLoop=1;jettySize=auto;html=1;exitX=0.5;exitY=1;exitDx=0;exitDy=0;entryX=0.5;entryY=0;entryDx=0;entryDy=0;fontFamily=Times New Roman;fontSize=12;" edge="1" parent="1" source="vTX-KcL99bvoVYK80CGo-8" target="vTX-KcL99bvoVYK80CGo-9">
          <mxGeometry relative="1" as="geometry" />
        </mxCell>
        <mxCell id="vTX-KcL99bvoVYK80CGo-8" value="&lt;b&gt;&lt;font face=&quot;Times New Roman&quot;&gt;Check overdue books and fines&lt;/font&gt;&lt;/b&gt;" style="rounded=1;whiteSpace=wrap;html=1;fillColor=#FFFFFF;gradientColor=none;" vertex="1" parent="1">
          <mxGeometry x="550" y="540" width="120" height="60" as="geometry" />
        </mxCell>
        <mxCell id="vTX-KcL99bvoVYK80CGo-27" value="&lt;b&gt;No overdue books or fines&lt;/b&gt;" style="edgeStyle=orthogonalEdgeStyle;rounded=0;orthogonalLoop=1;jettySize=auto;html=1;exitX=0.5;exitY=1;exitDx=0;exitDy=0;entryX=0.5;entryY=0;entryDx=0;entryDy=0;fontFamily=Times New Roman;fontSize=12;" edge="1" parent="1" source="vTX-KcL99bvoVYK80CGo-9" target="vTX-KcL99bvoVYK80CGo-10">
          <mxGeometry relative="1" as="geometry" />
        </mxCell>
        <mxCell id="vTX-KcL99bvoVYK80CGo-30" style="edgeStyle=orthogonalEdgeStyle;rounded=0;orthogonalLoop=1;jettySize=auto;html=1;exitX=0;exitY=0.5;exitDx=0;exitDy=0;fontFamily=Times New Roman;fontSize=12;" edge="1" parent="1" source="vTX-KcL99bvoVYK80CGo-9" target="vTX-KcL99bvoVYK80CGo-12">
          <mxGeometry relative="1" as="geometry" />
        </mxCell>
        <mxCell id="vTX-KcL99bvoVYK80CGo-32" value="&lt;b&gt;Overdue books or fines found&lt;/b&gt;" style="edgeLabel;html=1;align=center;verticalAlign=middle;resizable=0;points=[];fontSize=12;fontFamily=Times New Roman;" vertex="1" connectable="0" parent="vTX-KcL99bvoVYK80CGo-30">
          <mxGeometry x="0.145" y="2" relative="1" as="geometry">
            <mxPoint x="9" y="-2" as="offset" />
          </mxGeometry>
        </mxCell>
        <mxCell id="vTX-KcL99bvoVYK80CGo-9" value="" style="rhombus;whiteSpace=wrap;html=1;fillColor=#FFFFFF;gradientColor=none;" vertex="1" parent="1">
          <mxGeometry x="570" y="640" width="80" height="80" as="geometry" />
        </mxCell>
        <mxCell id="vTX-KcL99bvoVYK80CGo-28" style="edgeStyle=orthogonalEdgeStyle;rounded=0;orthogonalLoop=1;jettySize=auto;html=1;exitX=0;exitY=0.5;exitDx=0;exitDy=0;entryX=1;entryY=0.5;entryDx=0;entryDy=0;fontFamily=Times New Roman;fontSize=12;" edge="1" parent="1" source="vTX-KcL99bvoVYK80CGo-10" target="vTX-KcL99bvoVYK80CGo-11">
          <mxGeometry relative="1" as="geometry" />
        </mxCell>
        <mxCell id="vTX-KcL99bvoVYK80CGo-10" value="&lt;b&gt;&lt;font face=&quot;Times New Roman&quot;&gt;Checkout Book&lt;/font&gt;&lt;/b&gt;" style="rounded=1;whiteSpace=wrap;html=1;fillColor=#FFFFFF;gradientColor=none;" vertex="1" parent="1">
          <mxGeometry x="550" y="760" width="120" height="60" as="geometry" />
        </mxCell>
        <mxCell id="vTX-KcL99bvoVYK80CGo-11" value="" style="rhombus;whiteSpace=wrap;html=1;fillColor=#FFFFFF;gradientColor=none;" vertex="1" parent="1">
          <mxGeometry x="385" y="750" width="80" height="80" as="geometry" />
        </mxCell>
        <mxCell id="vTX-KcL99bvoVYK80CGo-29" style="edgeStyle=orthogonalEdgeStyle;rounded=0;orthogonalLoop=1;jettySize=auto;html=1;exitX=0.5;exitY=1;exitDx=0;exitDy=0;entryX=0;entryY=0.5;entryDx=0;entryDy=0;fontFamily=Times New Roman;fontSize=12;" edge="1" parent="1" source="vTX-KcL99bvoVYK80CGo-12" target="vTX-KcL99bvoVYK80CGo-11">
          <mxGeometry relative="1" as="geometry" />
        </mxCell>
        <mxCell id="vTX-KcL99bvoVYK80CGo-12" value="&lt;b&gt;&lt;font face=&quot;Times New Roman&quot;&gt;Reject request&lt;/font&gt;&lt;/b&gt;" style="rounded=1;whiteSpace=wrap;html=1;fillColor=#FFFFFF;gradientColor=none;" vertex="1" parent="1">
          <mxGeometry x="180" y="650" width="120" height="60" as="geometry" />
        </mxCell>
      </root>
    </mxGraphModel>
  </diagram>
</mxfile>
